<?xml version="1.0" encoding="UTF-8"?>
<!DOCTYPE svg PUBLIC "-//W3C//DTD SVG 1.1//EN" "http://www.w3.org/Graphics/SVG/1.1/DTD/svg11.dtd">
<!-- Creator: CorelDRAW 2020 (64 Bit) -->
<svg xmlns="http://www.w3.org/2000/svg" xml:space="preserve" width="101.425mm" height="21.3364mm" version="1.1" style="shape-rendering:geometricPrecision; text-rendering:geometricPrecision; image-rendering:optimizeQuality; fill-rule:evenodd; clip-rule:evenodd"
viewBox="0 0 11247.41 2366.09"
 xmlns:xlink="http://www.w3.org/1999/xlink"
 xmlns:xodm="http://www.corel.com/coreldraw/odm/2003">
 <defs>
  <style type="text/css">
   <![CDATA[
    .fil1 {fill:#FEFEFE}
    .fil0 {fill:#FEFEFE;fill-rule:nonzero}
   ]]>
  </style>
 </defs>
 <g id="Camada_x0020_1">
  <metadata id="CorelCorpID_0Corel-Layer"/>
  <path class="fil0" d="M3026.07 1945.83l352.11 0 -8.34 -897.97 810.47 897.97 214.59 0 0 -1541.76 -350.02 0 8.33 897.98 -810.46 -897.98 -216.69 0 0 1541.76zm2339.74 20.84c450.02,0 752.13,-316.69 752.13,-791.72 0,-475.03 -302.11,-791.72 -752.13,-791.72 -452.12,0 -754.21,316.69 -754.21,791.72 0,475.03 302.1,791.72 754.21,791.72zm0 -291.69c-233.35,0 -391.69,-200.01 -391.69,-500.03 0,-300.01 158.33,-500.03 391.69,-500.03 233.34,0 389.6,200.02 389.6,500.03 0,300.02 -156.26,500.03 -389.6,500.03zm1970.95 -1270.92l-1164.66 0 0 291.69 406.28 0 0 1250.08 352.1 0 0 -1250.08 406.27 0 0 -291.69zm177.09 1541.76l352.11 0 0 -1541.76 -352.11 0 0 1541.76zm1587.6 -1250.08l0 -291.69 -941.73 0 0 1541.76 352.11 0 0 -591.7 491.69 0 0 -291.69 -491.69 0 0 -366.69 589.61 0zm208.35 1250.08l352.11 0 0 -1541.76 -352.11 0 0 1541.76zm1329.25 20.84c260.44,0 464.61,-106.26 608.38,-314.61l-237.51 -212.51c-81.26,147.92 -189.6,235.43 -362.52,235.43 -243.77,0 -408.36,-200.01 -408.36,-502.12 0,-297.93 160.42,-497.95 397.93,-497.95 150.02,0 275.02,72.92 341.69,181.27l220.86 -227.1c-143.76,-168.76 -337.53,-245.85 -564.62,-245.85 -454.2,0 -758.38,312.52 -758.38,785.48 0,477.11 306.27,797.96 762.54,797.96z"/>
  <path class="fil0" d="M2360.3 1063.3c34.89,344.94 -81.4,701.99 -348.03,963.79 -398.47,391.31 -1003.52,443.2 -1456.86,159.01l-491.57 143.32 139.21 -483.34c-314.62,-463.87 -263.07,-1100.36 151.06,-1507.08 349.13,-342.86 856.91,-425.16 1282.23,-249.12 -140.14,111.16 -230.03,282.91 -230.03,475.68 0,335.14 271.7,606.84 606.86,606.84 129.1,0 248.77,-40.37 347.14,-109.1zm-928.96 484.29l125.04 0c38.79,0 70.53,31.74 70.53,70.53l0 0c0,38.8 -31.74,70.53 -70.53,70.53l-125.04 0c-38.79,0 -70.52,-31.73 -70.52,-70.53l0 0c0,-38.79 31.73,-70.53 70.52,-70.53zm-1029.09 -601.08l865.6 0c38.79,0 70.52,31.73 70.52,70.53l0 0c0,38.79 -31.73,70.52 -70.52,70.52l-865.6 0c-38.79,0 -70.52,-31.73 -70.52,-70.52l0 0c0,-38.8 31.73,-70.53 70.52,-70.53zm0 601.08l746.97 0c38.8,0 70.53,31.74 70.53,70.53l0 0c0,38.8 -31.73,70.53 -70.53,70.53l-746.97 0c-38.79,0 -70.52,-31.73 -70.52,-70.53l0 0c0,-38.79 31.73,-70.53 70.52,-70.53zm0 -288.54l1154.12 0c38.79,0 70.52,31.74 70.52,70.53l0 0c0,38.8 -31.73,70.53 -70.52,70.53l-1154.12 0c-38.79,0 -70.52,-31.73 -70.52,-70.53l0 0c0,-38.79 31.73,-70.53 70.52,-70.53zm1081.64 -1135.07c-376.92,-106.94 -787.22,-5.94 -1072.07,273.81 -378.83,372.03 -438.3,963.09 -140.59,1402.03 14.22,20.96 17.99,44.72 10.98,69.06l-97.8 339.56 347.93 -101.42c23.4,-6.82 46.18,-3.66 66.82,9.28 430.62,269.94 992.19,208.67 1355.39,-147.99 208.66,-204.91 325.15,-480.63 329.31,-768.77 -85.06,36.36 -176.91,55.25 -270.72,55.25 -380.63,0 -689.24,-308.61 -689.24,-689.24 0,-163.38 57.47,-318.87 159.98,-441.56zm-81.1 28.81c-135.39,-28.81 -275.43,-30.66 -411.94,-5.29 -206.34,38.35 -396,137.11 -545.76,284.18 -361.76,355.26 -419.36,921.6 -134.57,1341.48 22.09,32.57 28.22,71.04 17.32,108.86l-73.92 256.69 265.13 -77.3c36.3,-10.58 73.31,-5.43 105.34,14.65 412.27,258.43 949.84,199.16 1296.86,-141.63 181.55,-178.26 291.45,-413.94 311.79,-665.59 -71.03,22.18 -145.16,33.45 -219.89,33.45 -406.85,0 -736.74,-329.89 -736.74,-736.74 0,-147.94 44.19,-291.39 126.38,-412.75z"/>
  <path class="fil1" d="M2013.15 39.48c290.53,0 526.06,235.53 526.06,526.08 0,290.53 -235.53,526.06 -526.06,526.06 -290.55,0 -526.08,-235.53 -526.08,-526.06 0,-290.55 235.53,-526.08 526.08,-526.08zm-132.31 167.24c-1.7,-25.71 17.5,-47.91 43.15,-50.2 8.22,-0.74 16.35,-1.3 24.42,-1.65 22.84,-1 44.39,-1.52 64.74,-1.52 20.29,0 41.63,0.52 63.97,1.52 8.45,0.39 17.04,1 25.86,1.81 25.35,2.34 44.12,24.7 42.46,50.12l-32.08 484.3c-1.53,22.77 -19.06,41.3 -41.76,43.81 -5.1,0.55 -9.98,1.03 -14.65,1.44 -15.43,1.3 -30.03,1.93 -43.8,1.93 -16.3,0 -35.72,-1.21 -58.25,-3.68 -22.74,-2.5 -40.48,-20.97 -41.98,-43.83l-32.07 -484.05zm132.31 614.79c15.77,0 31.72,0.61 47.84,1.83 4.13,0.31 8.26,0.67 12.46,1.04 22.79,2.12 40.86,20.25 42.74,43.03l0.04 0.38c0.96,11.99 1.19,23.4 0.69,34.24 -0.54,10.75 -1.83,21.96 -3.87,33.6 -0.06,0.29 -0.09,0.59 -0.16,0.9 -3.74,20.99 -21.25,36.78 -42.49,38.64 -4.29,0.38 -8.51,0.72 -12.68,1.02 -15.06,1.04 -29.93,1.57 -44.58,1.57 -14.67,0 -29.58,-0.53 -44.6,-1.57 -4.17,-0.3 -8.37,-0.64 -12.69,-1.02 -21.24,-1.85 -38.75,-17.64 -42.48,-38.65 -0.03,-0.3 -0.1,-0.6 -0.16,-0.89 -2.04,-11.64 -3.33,-22.86 -3.83,-33.6 -0.53,-10.85 -0.32,-22.26 0.67,-34.24l0.02 -0.34c1.85,-22.81 19.96,-40.94 42.74,-43.06 4.21,-0.38 8.34,-0.73 12.46,-1.04 16.12,-1.22 32.07,-1.83 47.86,-1.83z"/>
 </g>
</svg>
